<svg width="20.000000" height="20.000000" viewBox="0 0 20 20" fill="none" xmlns="http://www.w3.org/2000/svg" xmlns:xlink="http://www.w3.org/1999/xlink">
	<desc>
			Created with Pixso.
	</desc>
	<defs/>
	<path id="Shape" d="M2 0L18 0C19.1001 0 20 0.899994 20 2L20 18C20 19.1 19.1001 20 18 20L2 20C0.899902 20 0 19.1 0 18L0 2C0 0.899994 0.899902 0 2 0ZM4.5 6.29999C3.5 6.29999 2.69995 5.5 2.69995 4.5C2.69995 3.5 3.5 2.70001 4.5 2.70001C5.5 2.70001 6.30005 3.5 6.30005 4.5C6.30005 5.5 5.5 6.29999 4.5 6.29999ZM14 17L17 17L17 11.3C17 9.39999 15.3999 7.79999 13.5 7.79999C12.6001 7.79999 11.5 8.39999 11 9.20001L11 8L8 8L8 17L11 17L11 11.7C11 10.9 11.7 10.2 12.5 10.2C13.3 10.2 14 10.9 14 11.7L14 17ZM6 17L6 8L3 8L3 17L6 17Z" clip-rule="evenodd" fill="#FFFFFF" fill-opacity="1.000000" fill-rule="evenodd"/>
</svg>
