<svg width="128.000000" height="32.000000" viewBox="0 0 128 32" fill="none" xmlns="http://www.w3.org/2000/svg" xmlns:xlink="http://www.w3.org/1999/xlink">
	<desc>
			Created with Pixso.
	</desc>
	<defs/>
	<path id="myteam" d="M4.97095 14.5892L4.97095 23.625L0 23.625L0 6.55359L4.97095 6.55359L4.97095 9.03577Q5.40442 8.09729 6.10193 7.43799Q6.3866 7.16895 6.71509 6.94641Q7.4115 6.52881 8.16455 6.34949Q8.73193 6.21423 9.33142 6.21423Q11.9122 6.21423 13.4036 7.48889Q14.2002 8.1698 14.686 9.21423Q15.8291 7.31958 17.4817 6.60742Q18.4769 6.17859 19.657 6.17859Q21.9877 6.17859 23.5013 7.29065Q24.0266 7.67664 24.4535 8.19641Q26.1105 10.2142 26.1105 13.9286L26.1105 23.625L21.1919 23.625L21.1919 14.5178Q21.1919 12.9464 20.4419 12.0358Q20.114 11.6553 19.7009 11.4337Q19.1251 11.125 18.3837 11.125C17.5349 11.125 16.8546 11.4108 16.343 11.9822Q15.5756 12.8392 15.5756 14.5892L15.5756 23.625L10.6046 23.625L10.6046 14.4108C10.5581 13.387 10.2849 12.5834 9.78491 12Q9.45496 11.6238 9.04114 11.4093Q8.49255 11.125 7.79651 11.125Q7.08716 11.125 6.51904 11.4083Q6.10938 11.6127 5.77332 11.9642Q4.97095 12.8036 4.97095 14.5892ZM45.9985 6.55359L35.7078 32L30.4578 32L34.4694 21.875L28.0333 6.55359L33.3182 6.55359L36.9985 16.2322L40.7136 6.55359L45.9985 6.55359ZM54.6539 10.5714L54.6539 23.625L49.7179 23.625L49.7179 10.5714L46.683 10.5714L46.683 6.55359L49.7179 6.55359L49.7179 0L54.6539 0L54.6539 6.55359L58.1598 6.55359L58.1598 10.5714L54.6539 10.5714ZM76.2338 20.5178C74.6873 22.8392 72.1466 23.994 68.6117 23.9822C66.1582 23.9822 64.0885 23.1548 62.4025 21.5Q61.6102 20.7003 61.0697 19.7565Q59.9082 17.7288 59.9082 15.0358C59.9082 12.4048 60.7396 10.2678 62.4025 8.625C64.0652 6.98218 66.1233 6.16663 68.5768 6.17859C71.0303 6.17859 73.071 7.01196 74.699 8.67859C76.3268 10.3452 77.1466 12.512 77.1582 15.1786C77.1582 15.2024 77.135 15.7262 77.0885 16.75L64.8617 16.75C64.9547 17.6548 65.4082 18.3572 66.2222 18.8572C67.0361 19.3572 67.9547 19.6072 68.978 19.6072C70.571 19.6072 71.7861 19.0714 72.6233 18L76.2338 20.5178ZM72.1525 13.5714L64.9315 13.5714C65.1176 12.6428 65.5826 11.9166 66.3268 11.3928C67.0477 10.869 67.8268 10.619 68.6641 10.6428Q69.2438 10.6593 69.7751 10.828Q70.3949 11.0248 70.949 11.4286C71.635 11.9286 72.0361 12.6428 72.1525 13.5714ZM90.4707 23.375C89.5288 23.7798 88.6277 23.9702 87.7672 23.9464Q86.2142 23.9464 84.8466 23.4431Q83.1881 22.8326 81.802 21.4822C80.116 19.8392 79.2729 17.7024 79.2729 15.0714Q79.2729 12.5184 80.3679 10.5857Q80.9655 9.53076 81.8893 8.66077C83.6334 7.01782 85.5928 6.19043 87.7672 6.17859C88.6509 6.17859 89.5579 6.375 90.4882 6.76782C91.4183 7.16077 92.1334 7.72021 92.6334 8.44641L92.6334 6.55359L97.552 6.55359L97.552 23.625L92.6334 23.625L92.6334 21.6786C92.1334 22.4048 91.4125 22.9702 90.4707 23.375ZM88.5695 19.125C87.4417 19.125 86.4707 18.744 85.6567 17.9822C84.8195 17.2202 84.4009 16.256 84.4009 15.0892C84.4009 13.9346 84.8195 12.9642 85.6567 12.1786Q86.6094 11.3658 87.6902 11.1222Q88.153 11.0178 88.6393 11.0178C89.7207 11.0178 90.6567 11.3988 91.4474 12.1608C92.2382 12.9226 92.6334 13.8988 92.6334 15.0892C92.6334 16.2798 92.2382 17.25 91.4474 18C90.6567 18.75 89.6974 19.125 88.5695 19.125ZM106.818 14.5892L106.818 23.625L101.847 23.625L101.847 6.55359L106.818 6.55359L106.818 9.03577C107.225 8.15479 107.806 7.45837 108.562 6.94641Q109.259 6.52881 110.012 6.34949Q110.579 6.21423 111.178 6.21423C113.818 6.21423 115.603 7.21423 116.533 9.21423Q117.676 7.31958 119.329 6.60742Q120.324 6.17859 121.504 6.17859Q123.835 6.17859 125.348 7.29065Q125.874 7.67664 126.301 8.19641C127.405 9.54163 127.958 11.4524 127.958 13.9286L127.958 23.625L123.039 23.625L123.039 14.5178Q123.039 12.9464 122.289 12.0358C121.766 11.4286 121.08 11.125 120.231 11.125C119.382 11.125 118.702 11.4108 118.19 11.9822Q117.423 12.8392 117.423 14.5892L117.423 23.625L112.452 23.625L112.452 14.4108C112.405 13.387 112.132 12.5834 111.632 12C111.12 11.4166 110.458 11.125 109.644 11.125C108.83 11.125 108.155 11.4048 107.62 11.9642Q106.818 12.8036 106.818 14.5892Z" clip-rule="evenodd" fill="#FFFFFF" fill-opacity="1.000000" fill-rule="evenodd"/>
</svg>
